<?xml version="1.0" encoding="UTF-8" standalone="no"?>
<svg
   height="512px"
   id="Layer_1"
   style="enable-background:new 0 0 512 512;"
   version="1.1"
   viewBox="0 0 512 512"
   width="512px"
   xml:space="preserve"
   sodipodi:docname="full-heart.svg"
   inkscape:version="1.2.2 (b0a8486541, 2022-12-01)"
   xmlns:inkscape="http://www.inkscape.org/namespaces/inkscape"
   xmlns:sodipodi="http://sodipodi.sourceforge.net/DTD/sodipodi-0.dtd"
   xmlns="http://www.w3.org/2000/svg"
   xmlns:svg="http://www.w3.org/2000/svg"><defs
   id="defs76" /><sodipodi:namedview
   id="namedview74"
   pagecolor="#ffffff"
   bordercolor="#000000"
   borderopacity="0.25"
   inkscape:showpageshadow="2"
   inkscape:pageopacity="0.0"
   inkscape:pagecheckerboard="0"
   inkscape:deskcolor="#d1d1d1"
   showgrid="false"
   inkscape:zoom="2"
   inkscape:cx="302.75"
   inkscape:cy="244.75"
   inkscape:window-width="1883"
   inkscape:window-height="1055"
   inkscape:window-x="37"
   inkscape:window-y="0"
   inkscape:window-maximized="1"
   inkscape:current-layer="Layer_1" />
    <path
   d="M340.8,98.4c50.7,0,91.9,41.3,91.9,92.3c0,26.2-10.9,49.8-28.3,66.6L256,407.1L105,254.6c-15.8-16.6-25.6-39.1-25.6-63.9           c0-51,41.1-92.3,91.9-92.3c38.2,0,70.9,23.4,84.8,56.8C269.8,121.9,302.6,98.4,340.8,98.4 M340.8,83C307,83,276,98.8,256,124.8           c-20-26-51-41.8-84.8-41.8C112.1,83,64,131.3,64,190.7c0,27.9,10.6,54.4,29.9,74.6L245.1,418l10.9,11l10.9-11l148.3-149.8           c21-20.3,32.8-47.9,32.8-77.5C448,131.3,399.9,83,340.8,83L340.8,83z"
   id="path71" />
<path
   style="fill:#ff0000;stroke-width:0.353553"
   d="M 193.16567,343.74228 C 107.52414,257.249 102.68693,252.32831 99.93412,248.90159 89.316516,235.6847 82.352944,219.35141 80.037137,202.23254 c -0.718825,-5.31369 -0.807865,-16.8837 -0.170054,-22.09709 3.612682,-29.52966 20.509017,-55.12724 46.066477,-69.78971 27.33406,-15.681718 61.21283,-16.009401 89.11464,-0.86194 7.94788,4.31479 14.18686,9.04009 21.13351,16.00621 7.98112,8.00347 14.31302,17.05954 18.71784,26.77077 l 1.14797,2.53093 2.77196,-5.53613 c 13.73877,-27.43888 39.094,-45.64788 69.8084,-50.133293 6.45609,-0.942822 18.88882,-0.85882 25.5608,0.172702 37.42774,5.786531 67.30239,33.247911 76.02129,69.880311 1.59728,6.71095 2.18484,11.21076 2.42359,18.56155 0.52492,16.15865 -2.84165,31.08345 -10.23832,45.38891 -4.74796,9.18274 -9.43244,15.4829 -18.00413,24.21372 -19.83506,20.20329 -148.1901,149.60047 -148.39562,149.60047 -0.13997,0 -28.41339,-28.43895 -62.82982,-63.19767 z"
   id="path340" /></svg>
